# xmcd
#
# Track frame offsets:
#	150
#	14182
#	27349
#	37254
#	54729
#	64627
#	72712
#	88374
#	98284
#	106751
#	119050
#	132638
#	149880
#	160365
#	175718
#
# Disc length: 2526 seconds
#
# Revision: 0
# Processed by: cddbd v1.5.2PL0 Copyright (c) Steve Scherf et al.
# Submitted via: EZCDAudioConverter 2.1.7.1
#
DISCID=ec09dc0f
DTITLE=V/A - 284_Murder Ballads
DYEAR=1900
DGENRE=
TTITLE0=Bobby Darin - Mack The Knife
TTITLE1=Harry Belafonte with Victor Messer and Millard Thomas - Did You Hear Abo
TTITLE1=ut Jerry?
TTITLE2=Odetta - Another Man Done Gone
TTITLE3=Nina Simone - Plain Gold Ring
TTITLE4=Alabama Singers - Jesus Met The Woman At The Well
TTITLE5=Pete Seeger - All The Pretty Little Horses
TTITLE6=Dick Justice - Henry Lee
TTITLE7=Peggy Seeger - Katy Cruel
TTITLE8=Leadbelly - Black Betty
TTITLE9=Hank Williams - Lost Highway
TTITLE10=Frank Hutchison - Stackalee
TTITLE11=Louvin Brothers - Knoxville Girl
TTITLE12=Roy Rogers - The Streets Of Laredo
TTITLE13=Blind Willie Johnson - (I'm Gonna Run To) The City Of Refuge
TTITLE14=John Lee Hooker - I'm Gonna Kill That Woman
EXTD=
EXTT0=
EXTT1=
EXTT2=
EXTT3=
EXTT4=
EXTT5=
EXTT6=
EXTT7=
EXTT8=
EXTT9=
EXTT10=
EXTT11=
EXTT12=
EXTT13=
EXTT14=
PLAYORDER=
